<svg width="16" height="16" viewBox="0 0 16 16" fill="none" xmlns="http://www.w3.org/2000/svg">
<path d="M12.4725 2.33039C11.211 1.70271 9.66727 1.3335 8 1.3335C6.33273 1.3335 4.789 1.70271 3.52744 2.3304C2.90879 2.6382 2.59946 2.79211 2.29973 3.27602C2 3.75994 2 4.22848 2 5.16559V7.49155C2 11.2805 5.02824 13.3871 6.782 14.2894C7.27113 14.541 7.51567 14.6668 8 14.6668C8.48433 14.6668 8.72887 14.541 9.21793 14.2894C10.9717 13.3871 14 11.2805 14 7.49155V5.1656C14 4.22849 14 3.75994 13.7003 3.27602C13.4005 2.79211 13.0912 2.6382 12.4725 2.33039Z" stroke="#353535" stroke-linecap="round" stroke-linejoin="round"/>
<path d="M8.00065 6.00008V6.66673M7.33398 6.33341C7.33398 6.51023 7.40425 6.6798 7.52925 6.8048C7.65425 6.92987 7.82385 7.00007 8.00065 7.00007C8.17745 7.00007 8.34705 6.92987 8.47205 6.8048C8.59705 6.6798 8.66732 6.51023 8.66732 6.33341C8.66732 6.15661 8.59705 5.98703 8.47205 5.86201C8.34705 5.73699 8.17745 5.66675 8.00065 5.66675C7.82385 5.66675 7.65425 5.73699 7.52925 5.86201C7.40425 5.98703 7.33398 6.15661 7.33398 6.33341Z" stroke="#353535" stroke-width="1.5" stroke-linecap="round" stroke-linejoin="round"/>
<path d="M8.5 9.33333H7.5L8 7L8.5 9.33333Z" stroke="#353535" stroke-linecap="round" stroke-linejoin="round"/>
</svg>
